<svg width="297" height="66" viewBox="0 0 297 66" fill="none" xmlns="http://www.w3.org/2000/svg">
<path d="M19.6067 6.79565H6.79492L9.99787 13.331H16.4038L19.6067 6.79565Z" stroke="#0077FF" stroke-width="0.388216" stroke-linecap="round" stroke-linejoin="round"/>
<path d="M9.99805 6.79492L13.201 13.3302" stroke="#0077FF" stroke-width="0.388216" stroke-linecap="round" stroke-linejoin="round"/>
<path d="M16.4038 16.5979H9.99787L6.79492 39.4714L13.2008 46.0067L19.6067 39.4714L16.4038 16.5979Z" stroke="#0077FF" stroke-width="0.388216" stroke-linecap="round" stroke-linejoin="round"/>
<path d="M13.201 16.5979L9.99805 39.4714L14.8025 44.3729" stroke="#0077FF" stroke-width="0.388216" stroke-linecap="round" stroke-linejoin="round"/>
<path d="M26.5974 6.59888C26.5877 6.59887 26.578 6.5996 26.5684 6.60104C26.5588 6.6025 26.5493 6.60467 26.5401 6.60754C26.5382 6.60811 26.5364 6.6087 26.5345 6.60932C26.529 6.61121 26.5236 6.61335 26.5183 6.61573C26.5165 6.61652 26.5147 6.61734 26.513 6.61819C26.5077 6.62071 26.5026 6.62348 26.4976 6.62647C26.4943 6.62845 26.491 6.63054 26.4878 6.63272C26.4862 6.63382 26.4846 6.63495 26.483 6.6361C26.4798 6.63838 26.4768 6.64075 26.4738 6.64322C26.4708 6.64568 26.4678 6.64823 26.465 6.65087C26.4636 6.65219 26.4622 6.65354 26.4608 6.65491C26.458 6.65762 26.4553 6.66042 26.4527 6.66329C26.4514 6.66475 26.4501 6.66622 26.4489 6.66772C26.4476 6.66919 26.4464 6.67068 26.4452 6.67219C26.4427 6.67523 26.4404 6.67835 26.4382 6.68153C26.437 6.68312 26.436 6.68472 26.4349 6.68634C26.4327 6.68959 26.4307 6.6929 26.4287 6.69626C26.4278 6.69795 26.4268 6.69965 26.4259 6.70137C26.424 6.70478 26.4223 6.70825 26.4206 6.71176C26.4157 6.72236 26.4117 6.73338 26.4088 6.74469C26.4078 6.74845 26.4069 6.75224 26.4061 6.75605C26.4058 6.75797 26.4054 6.7599 26.4051 6.76183C26.4041 6.76759 26.4034 6.77339 26.4029 6.77921C26.4026 6.78309 26.4025 6.78697 26.4024 6.79086C26.4024 6.79208 26.4023 6.7933 26.4023 6.79452V45.9221C26.4023 45.9739 26.4229 46.0237 26.4595 46.0604C26.4961 46.0971 26.5457 46.1177 26.5974 46.1177H33.0924C33.1856 46.1254 38.0284 46.5187 42.8934 45.5022C45.3496 44.989 47.8149 44.1175 49.6803 42.6365C51.5457 41.1555 52.8023 39.0491 52.8023 36.1402C52.8023 33.2312 51.5457 31.1249 49.6803 29.6438C47.8149 28.1628 45.3496 27.2913 42.8934 26.7781C40.7724 26.335 38.6547 26.16 36.9323 26.1041C37.7936 25.924 38.7317 25.6719 39.6708 25.3187C41.3164 24.6998 42.9708 23.7694 44.2186 22.3615C45.4664 20.9537 46.2999 19.0653 46.2999 16.5764C46.2999 14.0875 45.4664 12.1991 44.2186 10.7913C42.9708 9.38342 41.3165 8.45298 39.6708 7.83408C36.3909 6.60057 33.1245 6.59889 33.102 6.59889C33.1013 6.59888 33.1006 6.59888 33.0999 6.59888H26.5974ZM26.7925 6.99015H32.9048V26.3573C32.9048 26.3577 32.9048 26.358 32.9048 26.3583C32.9048 26.3584 32.9048 26.3585 32.9048 26.3586V45.7264H26.7925V6.99015ZM33.295 6.99409C34.0356 7.01632 36.788 7.16775 39.5338 8.20042C41.1394 8.80426 42.7364 9.70792 43.927 11.0512C45.1176 12.3945 45.9097 14.1744 45.9097 16.5764C45.9097 18.9784 45.1176 20.7583 43.927 22.1016C42.7364 23.4449 41.1394 24.3485 39.5338 24.9524C37.4892 25.7213 35.4402 26.0017 34.221 26.1039C33.8031 26.118 33.4867 26.1358 33.295 26.1482V6.99409ZM35.4968 26.4738C37.3626 26.471 40.0906 26.5922 42.8138 27.1612C45.2344 27.667 47.6459 28.5276 49.4381 29.9506C51.2304 31.3736 52.4122 33.343 52.4122 36.1402C52.4122 38.9373 51.2304 40.9067 49.4382 42.3297C47.6459 43.7527 45.2344 44.6134 42.8138 45.1191C38.5146 46.0174 34.2065 45.7999 33.295 45.7398V26.5503C33.4874 26.5448 33.8143 26.5309 34.2443 26.4951C34.5951 26.4835 35.0173 26.4745 35.4968 26.4738Z" fill="#0077FF"/>
<path d="M69.3023 26.3989C63.837 26.3989 59.4023 30.8336 59.4023 36.2989C59.4023 38.9245 60.4454 41.4427 62.302 43.2993C64.1585 45.1559 66.6768 46.1989 69.3023 46.1989C71.9279 46.1989 74.4462 45.1559 76.3027 43.2993C78.1593 41.4427 79.2023 38.9245 79.2023 36.2989C79.2023 33.6734 78.1593 31.1551 76.3027 29.2986C74.4462 27.442 71.9279 26.3989 69.3023 26.3989ZM69.3023 26.7872C71.8251 26.7872 74.2443 27.7893 76.0282 29.5731C77.812 31.357 78.8141 33.7762 78.8141 36.2989C78.8141 38.8217 77.812 41.2409 76.0282 43.0247C74.2443 44.8086 71.8251 45.8107 69.3023 45.8107C68.2583 45.8107 67.232 45.6391 66.2612 45.3114V27.2832C67.216 26.9615 68.2387 26.7872 69.3023 26.7872ZM65.8729 27.4235V45.1709C64.6482 44.6975 63.523 43.9712 62.5765 43.0247C60.7927 41.2409 59.7906 38.8217 59.7906 36.2989C59.7906 32.2527 62.3135 28.7988 65.8729 27.4235Z" fill="#0077FF"/>
<path d="M227.703 26.3989C222.237 26.3989 217.803 30.8336 217.803 36.2989C217.803 38.9245 218.846 41.4427 220.702 43.2993C222.559 45.1559 225.077 46.1989 227.703 46.1989C230.328 46.1989 232.847 45.1559 234.703 43.2993C236.56 41.4427 237.603 38.9245 237.603 36.2989C237.603 33.6734 236.56 31.1551 234.703 29.2986C232.847 27.442 230.328 26.3989 227.703 26.3989ZM227.703 26.7872C230.225 26.7872 232.645 27.7893 234.429 29.5731C236.212 31.357 237.214 33.7762 237.214 36.2989C237.214 38.8217 236.212 41.2409 234.429 43.0247C232.645 44.8086 230.225 45.8107 227.703 45.8107C226.659 45.8107 225.632 45.6391 224.662 45.3114V27.2832C225.616 26.9615 226.639 26.7872 227.703 26.7872ZM224.273 27.4235V45.1709C223.049 44.6975 221.923 43.9712 220.977 43.0247C219.193 41.2409 218.191 38.8217 218.191 36.2989C218.191 32.2527 220.714 28.7988 224.273 27.4235Z" fill="#0077FF"/>
<path d="M85.9969 26.3989C85.9454 26.3989 85.896 26.4194 85.8596 26.4558C85.8232 26.4922 85.8027 26.5416 85.8027 26.593V46.0048C85.8027 46.0563 85.8232 46.1057 85.8596 46.1421C85.896 46.1785 85.9454 46.1989 85.9969 46.1989H92.4675C92.5189 46.1989 92.5683 46.1785 92.6047 46.1421C92.6411 46.1057 92.6616 46.0563 92.6616 46.0048V33.0646C92.6616 33.0643 92.6616 33.064 92.6616 33.0637C92.6616 33.0637 92.6642 31.4865 93.4499 29.9152C94.2356 28.3438 95.7674 26.7872 98.938 26.7872C102.109 26.7872 103.641 28.3438 104.426 29.9152C105.212 31.4865 105.215 33.0637 105.215 33.0637C105.215 33.1151 105.235 33.1645 105.271 33.2009C105.308 33.2373 105.357 33.2578 105.409 33.2578C105.434 33.2578 105.459 33.2528 105.483 33.243C105.506 33.2332 105.528 33.2189 105.546 33.2009C105.564 33.1829 105.578 33.1615 105.588 33.1379C105.598 33.1144 105.603 33.0892 105.603 33.0637C105.603 33.0637 105.605 31.4055 104.773 29.7415C103.941 28.0776 102.238 26.3989 98.938 26.3989C95.638 26.3989 93.9346 28.0776 93.1026 29.7415C92.9172 30.1124 92.7734 30.4829 92.6616 30.8349V26.593C92.6616 26.5416 92.6411 26.4922 92.6047 26.4558C92.5683 26.4194 92.5189 26.3989 92.4675 26.3989L85.9969 26.3989ZM86.191 26.7872H92.2733V33.0636V45.8107H86.191V26.7872Z" fill="#0077FF"/>
<path d="M112.397 26.3989C112.346 26.3989 112.296 26.4194 112.26 26.4558C112.224 26.4922 112.203 26.5416 112.203 26.593C112.203 26.6445 112.224 26.6939 112.26 26.7303C112.296 26.7667 112.346 26.7872 112.397 26.7872H124.976L112.236 45.8971C112.216 45.9264 112.205 45.9604 112.203 45.9954C112.202 46.0305 112.21 46.0654 112.226 46.0964C112.243 46.1274 112.267 46.1533 112.298 46.1713C112.328 46.1894 112.362 46.1989 112.397 46.1989H131.809C131.86 46.1989 131.91 46.1785 131.946 46.1421C131.983 46.1057 132.003 46.0563 132.003 46.0048C132.003 45.9533 131.983 45.904 131.946 45.8675C131.91 45.8311 131.86 45.8107 131.809 45.8107H119.231L131.971 26.7007C131.99 26.6715 132.001 26.6375 132.003 26.6024C132.005 26.5673 131.997 26.5324 131.98 26.5015C131.964 26.4705 131.939 26.4446 131.909 26.4265C131.879 26.4085 131.844 26.3989 131.809 26.3989H125.339H125.337H112.397ZM125.442 26.7872H131.446L118.764 45.8107H112.76L125.442 26.7872Z" fill="#0077FF"/>
<path d="M148.503 26.593C143.142 26.593 138.797 30.9386 138.797 36.299C138.797 38.8731 139.819 41.3419 141.64 43.1621C143.46 44.9823 145.929 46.0049 148.503 46.0049V45.9984C145.93 45.9984 143.463 44.9765 141.644 43.1575C139.825 41.3385 138.803 38.8714 138.803 36.299C138.803 30.9421 143.146 26.5995 148.503 26.5995C151.075 26.5995 153.542 27.6214 155.361 29.4404C157.18 31.2594 158.202 33.7265 158.202 36.299H158.209C158.209 33.7248 157.186 31.256 155.366 29.4358C153.546 27.6156 151.077 26.593 148.503 26.593Z" fill="#0077FF" stroke="#0077FF" stroke-width="0.388108" stroke-linecap="round" stroke-linejoin="round"/>
<path d="M145.462 27.0818C145.332 27.1248 145.203 27.1705 145.074 27.219V45.3727C145.203 45.4212 145.332 45.467 145.462 45.51V27.0818Z" fill="#0077FF"/>
<path d="M158.205 36.2957H145.268" stroke="#0077FF" stroke-width="0.388108" stroke-linecap="round" stroke-linejoin="round"/>
<path d="M148.502 45.9984C150.119 45.9984 151.736 45.9984 153.353 45.4593C154.97 44.9203 156.588 43.8422 158.205 42.7642" stroke="#0077FF" stroke-width="0.388108" stroke-linecap="round" stroke-linejoin="round"/>
<path d="M171.668 26.5935H165.197V46.0053H171.668V26.5935Z" stroke="#0077FF" stroke-width="0.388235" stroke-linecap="round" stroke-linejoin="round"/>
<path d="M171.668 33.0636C171.668 33.0636 171.668 26.593 178.139 26.593C184.609 26.593 184.609 33.0636 184.609 33.0636V46.0048" stroke="#0077FF" stroke-width="0.388235" stroke-linecap="round" stroke-linejoin="round"/>
<path d="M198.066 6.79492H191.596V46.0048H198.066V6.79492Z" stroke="#0077FF" stroke-width="0.390143" stroke-linecap="round" stroke-linejoin="round"/>
<path d="M211.006 26.3999L198.066 32.9349L211.006 46.0048" stroke="#0077FF" stroke-width="0.390143" stroke-linecap="round" stroke-linejoin="round"/>
<path d="M263.807 19.9949C263.807 19.9949 259.494 21.084 257.337 21.6286C250.867 23.2624 250.867 26.5298 250.867 26.5298V57.571" stroke="#0077FF" stroke-width="0.390143" stroke-linecap="round" stroke-linejoin="round"/>
<path d="M244.396 59.2048C244.396 59.2048 248.71 58.1156 250.866 57.571C257.336 55.9373 257.336 52.6698 257.336 52.6698V21.6287" stroke="#0077FF" stroke-width="0.390143" stroke-linecap="round" stroke-linejoin="round"/>
<path d="M263.806 33.0649H257.336" stroke="#0077FF" stroke-width="0.390143" stroke-linecap="round" stroke-linejoin="round"/>
<path d="M250.866 33.0649H244.396" stroke="#0077FF" stroke-width="0.390143" stroke-linecap="round" stroke-linejoin="round"/>
<path d="M290.207 19.9949C290.207 19.9949 285.894 21.084 283.738 21.6286C277.268 23.2624 277.268 26.5298 277.268 26.5298V57.571" stroke="#0077FF" stroke-width="0.390143" stroke-linecap="round" stroke-linejoin="round"/>
<path d="M270.797 59.2048C270.797 59.2048 275.11 58.1156 277.267 57.571C283.737 55.9373 283.737 52.6698 283.737 52.6698V21.6287" stroke="#0077FF" stroke-width="0.390143" stroke-linecap="round" stroke-linejoin="round"/>
<path d="M290.206 33.0649H283.736" stroke="#0077FF" stroke-width="0.390143" stroke-linecap="round" stroke-linejoin="round"/>
<path d="M277.267 33.0649H270.797" stroke="#0077FF" stroke-width="0.390143" stroke-linecap="round" stroke-linejoin="round"/>
</svg>
