<svg width="40" height="40" viewBox="0 0 40 40" fill="none" xmlns="http://www.w3.org/2000/svg">
<path fill-rule="evenodd" clip-rule="evenodd" d="M36.8626 11.6732C36.8626 7.07151 33.131 3.33984 28.5293 3.33984C23.4393 3.33984 16.9526 3.33984 11.8626 3.33984C7.26096 3.33984 3.5293 7.07151 3.5293 11.6732C3.5293 16.7632 3.5293 23.2498 3.5293 28.3398C3.5293 32.9415 7.26096 36.6732 11.8626 36.6732C16.9526 36.6732 23.4393 36.6732 28.5293 36.6732C33.131 36.6732 36.8626 32.9415 36.8626 28.3398C36.8626 23.2498 36.8626 16.7632 36.8626 11.6732Z" fill="url(#paint0_linear_577_13294)"/>
<path d="M26.2104 22.6462L26.8817 18.3881H22.6855V15.6249C22.6855 14.4602 23.2715 13.3241 25.1509 13.3241H27.0584V9.69912C27.0584 9.69912 25.3276 9.41162 23.6724 9.41162C20.217 9.41162 17.9585 11.4513 17.9585 15.1432V18.3888H14.1172V22.6469H17.9585V36.6841H22.6855V22.6469L26.2104 22.6462Z" fill="white"/>
<defs>
<linearGradient id="paint0_linear_577_13294" x1="20.1699" y1="3.52941" x2="20.1699" y2="36.4706" gradientUnits="userSpaceOnUse">
<stop stop-color="#2DABEC"/>
<stop offset="1" stop-color="#0164E3"/>
</linearGradient>
</defs>
</svg>
