<svg width="40" height="40" viewBox="0 0 40 40" fill="none" xmlns="http://www.w3.org/2000/svg">
<path fill-rule="evenodd" clip-rule="evenodd" d="M36.6927 11.6732C36.6927 7.07151 32.961 3.33984 28.3594 3.33984C23.2694 3.33984 16.7827 3.33984 11.6927 3.33984C7.09104 3.33984 3.35938 7.07151 3.35938 11.6732C3.35938 16.7632 3.35938 23.2498 3.35938 28.3398C3.35938 32.9415 7.09104 36.6732 11.6927 36.6732C16.7827 36.6732 23.2694 36.6732 28.3594 36.6732C32.961 36.6732 36.6927 32.9415 36.6927 28.3398C36.6927 23.2498 36.6927 16.7632 36.6927 11.6732Z" fill="url(#paint0_radial_577_13288)"/>
<path d="M24.9565 8.34859C28.4415 8.38193 31.6498 11.3736 31.6848 15.0769C31.6965 18.3636 31.6965 21.6503 31.6848 24.9369C31.6515 28.4086 28.6598 31.6303 24.9565 31.6653C21.6698 31.6769 18.3831 31.6769 15.0965 31.6653C11.6098 31.6319 8.40313 28.6403 8.36813 24.9369C8.35646 21.6503 8.35646 18.3636 8.36813 15.0769C8.39979 11.5886 11.3848 8.38359 15.0965 8.34859C18.3831 8.33693 21.6698 8.33693 24.9565 8.34859ZM15.1415 9.92359C12.4365 9.93193 9.96979 12.2769 9.94312 15.0869C9.93312 18.3669 9.93312 21.6469 9.94312 24.9269C9.96812 27.6019 12.2565 30.0636 15.1065 30.0903C18.3865 30.1003 21.6665 30.1003 24.9465 30.0903C27.6281 30.0653 30.0831 27.7769 30.1098 24.9269C30.1198 21.6469 30.1198 18.3669 30.1098 15.0869C30.0848 12.3936 27.7515 9.95026 24.9465 9.92359C21.6781 9.91359 18.4098 9.92359 15.1415 9.92359Z" fill="white"/>
<path d="M20.0174 14.1602C22.7141 14.1852 25.2274 16.2652 25.7207 18.9302C26.0724 20.8302 25.4091 22.8902 24.0091 24.2268C22.4507 25.7102 20.0391 26.2402 17.9724 25.4835C15.6624 24.6385 14.0374 22.2035 14.1457 19.7368C14.2774 16.7902 16.8807 14.1702 19.9774 14.1602C19.9907 14.1602 20.0041 14.1602 20.0174 14.1602ZM19.9507 15.7385C18.0257 15.7568 16.2107 17.2168 15.8107 19.1135C15.4057 21.0318 16.5091 23.1602 18.3207 23.9252C20.2991 24.7618 22.8541 23.8235 23.8091 21.8702C24.7974 19.8518 23.8657 17.1102 21.7791 16.1352C21.2107 15.8702 20.5791 15.7368 19.9507 15.7385Z" fill="white"/>
<path fill-rule="evenodd" clip-rule="evenodd" d="M27.5 13.7117C27.5 13.39 27.3717 13.0817 27.145 12.855C26.9183 12.6283 26.61 12.5 26.2883 12.5C26.2633 12.5 26.2367 12.5 26.2117 12.5C25.89 12.5 25.5817 12.6283 25.355 12.855C25.1283 13.0817 25 13.39 25 13.7117C25 13.725 25 13.7367 25 13.75C25 14.0817 25.1317 14.4 25.3667 14.6333C25.6 14.8683 25.9183 15 26.25 15C26.94 15 27.5 14.44 27.5 13.75C27.5 13.7367 27.5 13.725 27.5 13.7117Z" fill="white"/>
<defs>
<radialGradient id="paint0_radial_577_13288" cx="0" cy="0" r="1" gradientUnits="userSpaceOnUse" gradientTransform="translate(3.35938 35.8398) scale(46.555)">
<stop stop-color="#FF8100"/>
<stop offset="0.19" stop-color="#FF7209"/>
<stop offset="0.32" stop-color="#F55E16"/>
<stop offset="0.48" stop-color="#D92938"/>
<stop offset="1" stop-color="#9100FF"/>
</radialGradient>
</defs>
</svg>
